<svg width="1183" height="440" xmlns="http://www.w3.org/2000/svg" xmlns:xlink="http://www.w3.org/1999/xlink" overflow="hidden"><defs><clipPath id="clip0"><rect x="92" y="270" width="1183" height="440"/></clipPath></defs><g clip-path="url(#clip0)" transform="translate(-92 -270)"><path d="M94.5001 513.5 405.5 513.5 343.3 709.5 156.7 709.5Z" stroke="#2F528F" stroke-width="1.33333" stroke-miterlimit="8" fill="#4472C4" fill-rule="evenodd"/><path d="M129.5 392C129.5 325.45 183.45 271.5 250 271.5 316.55 271.5 370.5 325.45 370.5 392 370.5 458.55 316.55 512.5 250 512.5 183.45 512.5 129.5 458.55 129.5 392Z" stroke="#2F528F" stroke-width="1.33333" stroke-miterlimit="8" fill="#E9E6A1" fill-rule="evenodd"/><rect x="167.5" y="343.5" width="66" height="48" stroke="#000000" stroke-width="1.33333" stroke-miterlimit="8"/><text fill="#FFFFFF" font-family="Calibri,Calibri_MSFontService,sans-serif" font-weight="400" font-size="24" transform="translate(194.6 374)">S</text><rect x="266.5" y="343.5" width="66" height="48" stroke="#000000" stroke-width="1.33333" stroke-miterlimit="8"/><text fill="#FFFFFF" font-family="Calibri,Calibri_MSFontService,sans-serif" font-weight="400" font-size="24" transform="translate(292.105 374)">R</text><path d="M233.5 367.5 266.023 367.5" stroke="#000000" stroke-width="0.666667" stroke-miterlimit="8" fill="none" fill-rule="evenodd"/><path d="M261.5 391.5 250 438.5 238.5 391.5Z" stroke="#000000" stroke-width="1.33333" stroke-miterlimit="8" fill-rule="evenodd"/><path d="M273.5 448.5 273.5 474C273.5 488.083 262.979 499.5 250 499.5 237.021 499.5 226.5 488.083 226.5 474L226.5 448.5Z" stroke="#000000" stroke-width="1.33333" stroke-miterlimit="8" fill-rule="evenodd"/><text fill="#FFFFFF" font-family="Calibri,Calibri_MSFontService,sans-serif" font-weight="400" font-size="24" transform="translate(243.519 477)">T</text><path d="M282.5 512.5 249.5 569.5 216.5 512.5Z" stroke="#AE5A21" stroke-width="1.33333" stroke-miterlimit="8" fill="#ED7D31" fill-rule="evenodd"/><path d="M235.5 545.5 263.5 545.5 263.5 630.517 263.348 630.517 249.5 665.5 235.652 630.517 235.5 630.517 235.5 630.134 235.5 630.133 235.5 630.133Z" stroke="#AE5A21" stroke-width="1.33333" stroke-miterlimit="8" fill="#ED7D31" fill-rule="evenodd"/><text fill="#FFFFFF" font-family="BIZ UDPMincho,BIZ UDPMincho_MSFontService,sans-serif" font-weight="500" font-size="128" transform="translate(446.925 530)">シリョタ<tspan x="416" y="0">Page</tspan></text></g></svg>